<?xml version="1.0" encoding="utf-8"?>
<!-- Generator: Adobe Illustrator 24.0.1, SVG Export Plug-In . SVG Version: 6.00 Build 0)  -->
<svg version="1.1" id="Layer_1" xmlns="http://www.w3.org/2000/svg" xmlns:xlink="http://www.w3.org/1999/xlink" x="0px" y="0px"
	 viewBox="0 0 462 100" style="enable-background:new 0 0 462 100;" xml:space="preserve">
<style type="text/css">
	.st0{fill:#D83868;}
	.st1{fill:#B11116;}
	.st2{fill:#D93B2B;}
	.st3{fill:#9E0B0F;}
	.st4{fill:#C4161C;}
</style>
<g>
	<g>
		<path d="M124.73,43.49c0-1.14-0.12-2.2-0.35-3.19c-0.24-0.99-0.72-1.76-1.44-2.31l5.82-0.88v17.17c0,0.18,0.09,0.27,0.27,0.27
			c0.11,0,0.37-0.23,0.77-0.69c0.4-0.46,0.92-0.96,1.56-1.49c0.64-0.54,1.4-1.03,2.3-1.5c0.89-0.46,1.91-0.69,3.03-0.69
			c1.64,0,3.03,0.4,4.15,1.18c1.13,0.79,2.03,1.8,2.71,3.03s1.17,2.59,1.47,4.08c0.31,1.49,0.47,2.95,0.47,4.38
			c0,1.84-0.23,3.58-0.68,5.23c-0.45,1.65-1.15,3.1-2.07,4.35c-0.93,1.25-2.12,2.24-3.57,2.97c-1.45,0.74-3.18,1.1-5.18,1.1
			c-0.87,0-1.67-0.05-2.4-0.14c-0.73-0.09-1.45-0.19-2.15-0.3c-0.71-0.11-1.45-0.21-2.23-0.3c-0.78-0.09-1.66-0.14-2.65-0.14
			c0.06-2.31,0.11-4.61,0.14-6.91c0.03-2.29,0.05-4.59,0.05-6.91V43.49z M140.74,60.26c-0.24-1.23-0.6-2.34-1.09-3.33
			c-0.49-0.99-1.15-1.8-1.97-2.42c-0.82-0.62-1.79-0.94-2.92-0.94c-1.93,0-3.41,0.76-4.45,2.29c-1.04,1.53-1.56,3.61-1.56,6.25v4.24
			c0,1.1,0.05,2.15,0.16,3.14c0.11,0.99,0.35,1.85,0.74,2.59c0.38,0.73,0.94,1.32,1.67,1.76c0.73,0.44,1.73,0.66,3.01,0.66
			c1.38,0,2.52-0.34,3.41-1.02c0.89-0.68,1.59-1.54,2.08-2.59c0.49-1.05,0.83-2.19,1.01-3.44c0.18-1.25,0.27-2.44,0.27-3.58
			C141.1,62.69,140.98,61.49,140.74,60.26z"/>
		<path d="M152.19,47.77c0-1.24-0.05-2.51-0.14-3.81c-0.09-1.3-0.44-2.42-1.06-3.38h7.33c-0.62,0.95-0.97,2.07-1.06,3.37
			c-0.09,1.3-0.14,2.57-0.14,3.81v8.55c0.65-0.11,1.33-0.42,2.04-0.93c0.71-0.51,1.43-1.13,2.18-1.86c0.75-0.73,1.48-1.52,2.21-2.38
			c0.73-0.86,1.43-1.69,2.13-2.49c1.49-1.75,2.67-3.2,3.54-4.33c0.87-1.13,1.31-2.03,1.31-2.68c0-0.22,0-0.42,0-0.6
			c0-0.18-0.02-0.33-0.05-0.44h6.76c-1.27,1.13-2.46,2.17-3.57,3.12c-1.11,0.95-2.26,2.08-3.46,3.4l-8.45,9.21l9.05,13.03
			c0.73,1.06,1.53,2.13,2.4,3.21c0.87,1.08,1.73,2.1,2.56,3.05h-5.72c-0.51,0-0.91-0.14-1.2-0.41c-0.29-0.27-0.58-0.63-0.87-1.07
			l-9.81-14.94c-0.11-0.18-0.25-0.38-0.41-0.58c-0.16-0.2-0.3-0.3-0.41-0.3c-0.11,0-0.17,0.06-0.19,0.17
			c-0.02,0.11-0.03,0.22-0.03,0.33v9.61c0,1.25,0.05,2.52,0.14,3.82c0.09,1.3,0.45,2.43,1.06,3.38h-7.33
			c0.62-0.95,0.97-2.07,1.06-3.38c0.09-1.3,0.14-2.57,0.14-3.81V47.77z"/>
		<path d="M192.31,75.96c-0.25-1.03-0.41-1.85-0.46-2.47c-0.05-0.62-0.19-0.93-0.4-0.93c-0.11,0-0.18,0.02-0.22,0.05
			c-0.04,0.04-0.07,0.07-0.11,0.11c-0.37,0.51-0.72,1-1.07,1.46c-0.35,0.46-0.76,0.86-1.23,1.21c-0.47,0.35-1.04,0.62-1.7,0.82
			c-0.66,0.2-1.46,0.3-2.41,0.3c-1.9,0-3.51-0.51-4.82-1.54c-1.31-1.03-1.97-2.55-1.97-4.56c0-1.21,0.33-2.25,1.01-3.11
			c0.67-0.86,1.51-1.62,2.51-2.28c1-0.66,2.08-1.24,3.22-1.73c1.15-0.49,2.18-0.96,3.09-1.4c0.77-0.37,1.4-0.68,1.91-0.94
			c0.51-0.26,0.91-0.55,1.2-0.89c0.29-0.33,0.49-0.75,0.6-1.27c0.11-0.52,0.17-1.21,0.17-2.1c0-1.36-0.31-2.51-0.93-3.45
			c-0.62-0.94-1.73-1.41-3.33-1.41c-1.31,0-2.21,0.28-2.72,0.82c-0.51,0.55-0.9,1.15-1.17,1.81c-0.27,0.66-0.57,1.27-0.9,1.81
			c-0.33,0.55-0.93,0.82-1.8,0.82c-0.62,0-1.11-0.15-1.47-0.47c-0.36-0.31-0.54-0.79-0.54-1.45c0-0.92,0.31-1.69,0.93-2.33
			c0.62-0.64,1.4-1.16,2.34-1.57c0.95-0.4,1.99-0.68,3.13-0.85c1.14-0.16,2.24-0.25,3.3-0.25c0.98,0,1.91,0.06,2.78,0.19
			c0.87,0.13,1.63,0.36,2.29,0.69c0.65,0.33,1.17,0.79,1.55,1.38c0.38,0.59,0.57,1.32,0.57,2.21v12.11c0,1.65,0.04,3.26,0.13,4.82
			c0.09,1.56,0.55,2.91,1.39,4.05L192.31,75.96z M183.67,72.44c0.78,0.64,1.8,0.96,3.04,0.96c0.8,0,1.51-0.17,2.13-0.52
			c0.62-0.35,1.14-0.8,1.56-1.37c0.42-0.57,0.73-1.21,0.93-1.95c0.2-0.73,0.3-1.48,0.3-2.25v-5.53l-2.96,1.48
			c-1.02,0.51-1.92,0.98-2.68,1.39c-0.77,0.42-1.41,0.86-1.94,1.31c-0.53,0.46-0.92,0.97-1.18,1.54c-0.26,0.57-0.38,1.23-0.38,2
			C182.49,70.83,182.88,71.81,183.67,72.44z"/>
		<path d="M206.08,57.94c0.56,0.73,1.26,1.39,2.1,1.96c0.84,0.57,1.75,1.1,2.73,1.6c0.98,0.49,1.89,1.07,2.73,1.71
			c0.83,0.65,1.53,1.39,2.1,2.23c0.56,0.85,0.85,1.91,0.85,3.19c0,1.32-0.28,2.47-0.85,3.45c-0.57,0.97-1.31,1.79-2.24,2.45
			c-0.93,0.66-1.97,1.15-3.11,1.49c-1.15,0.33-2.3,0.5-3.47,0.5c-1.09,0-2.12-0.1-3.09-0.3c-0.97-0.2-1.96-0.51-2.98-0.91
			c-0.29-0.11-0.52-0.24-0.68-0.39c-0.16-0.15-0.25-0.42-0.25-0.83c0-0.66,0.04-1.32,0.11-1.98c0.07-0.66,0.13-1.34,0.17-2.04
			c0.43,0.69,0.85,1.31,1.25,1.86c0.4,0.55,0.85,1.01,1.37,1.39c0.51,0.38,1.09,0.67,1.72,0.87c0.64,0.2,1.41,0.3,2.32,0.3
			c1.64,0,2.91-0.38,3.8-1.15c0.89-0.77,1.34-1.95,1.34-3.52c0-1.1-0.26-2.03-0.79-2.78c-0.53-0.75-1.19-1.41-1.99-1.98
			c-0.8-0.57-1.67-1.1-2.62-1.6c-0.95-0.49-1.82-1.06-2.61-1.71c-0.8-0.64-1.46-1.41-1.99-2.31c-0.53-0.9-0.79-2.03-0.79-3.39
			c0-2.09,0.73-3.59,2.21-4.51c1.47-0.92,3.5-1.38,6.07-1.38c0.83,0,1.66,0.06,2.48,0.19c0.82,0.13,1.64,0.29,2.48,0.47
			c0.07,0.04,0.21,0.08,0.41,0.14c0.2,0.06,0.3,0.18,0.3,0.36c0,0.51-0.01,1.12-0.03,1.82c-0.02,0.7-0.05,1.34-0.08,1.93
			c-0.55-0.66-1.03-1.21-1.45-1.63c-0.42-0.42-0.85-0.75-1.28-0.99c-0.44-0.24-0.89-0.4-1.36-0.5c-0.47-0.09-1.02-0.14-1.64-0.14
			c-1.05,0-2,0.27-2.83,0.8c-0.84,0.53-1.25,1.39-1.25,2.56C205.24,56.29,205.52,57.21,206.08,57.94z"/>
		<path d="M240.26,69.65c0,1.03,0.04,2.08,0.11,3.17c0.07,1.08,0.33,2.01,0.76,2.78h-4.89v-15.1c0-0.88-0.05-1.77-0.14-2.65
			c-0.09-0.89-0.31-1.67-0.66-2.37c-0.35-0.7-0.84-1.27-1.48-1.71c-0.64-0.44-1.51-0.66-2.61-0.66c-1.1,0-1.98,0.22-2.64,0.66
			c-0.66,0.44-1.18,1.03-1.57,1.76c-0.39,0.73-0.64,1.56-0.77,2.48c-0.13,0.92-0.19,1.83-0.19,2.75v8.87c0,1.03,0.04,2.09,0.11,3.17
			c0.07,1.09,0.37,2.01,0.9,2.78h-6.01c0.51-0.77,0.8-1.69,0.87-2.78c0.07-1.08,0.11-2.13,0.11-3.16V43.48
			c0-1.14-0.05-2.2-0.16-3.19c-0.11-0.99-0.53-1.76-1.25-2.31l5.44-0.88v15.55c0,0.22,0.01,0.42,0.02,0.6
			c0.01,0.18,0.07,0.27,0.16,0.27c0.11,0,0.32-0.17,0.63-0.52c0.31-0.35,0.76-0.73,1.35-1.15c0.59-0.42,1.31-0.81,2.17-1.15
			c0.86-0.35,1.88-0.52,3.05-0.52c2.09,0,3.73,0.55,4.91,1.65c1.19,1.1,1.79,2.93,1.79,5.5V69.65z"/>
	</g>
	<g>
		<polygon class="st0" points="235.03,2.73 281.29,8.77 270.32,47.17 		"/>
		<path class="st0" d="M282.94,8.95l34.38,45.71l-39.68,19.02l-4.94-20.11c0,0-1.28-7.31,0.73-12.98L282.94,8.95z"/>
		<polygon class="st1" points="318.6,54.3 305.8,36.38 327.37,32.72 		"/>
		<polygon class="st1" points="329.02,32.72 337.06,41.31 325.36,41.31 		"/>
		<polygon class="st2" points="284.59,72.4 317.32,56.13 316.22,59.97 		"/>
		<polygon class="st3" points="270.32,51.19 256.61,97.27 277.45,80.81 		"/>
		<polygon class="st1" points="252.95,27.42 239.6,10.41 234.48,10.6 		"/>
		<path class="st4" d="M272.41,51.02c0.12,1.54,0.29,2.54,0.29,2.54l4.94,20.11l39.68-19.02l-0.36-0.48L272.41,51.02z"/>
	</g>
</g>
</svg>
